<svg xmlns="http://www.w3.org/2000/svg" xmlns:xlink="http://www.w3.org/1999/xlink" width="500" zoomAndPan="magnify" viewBox="0 0 375 149.999998" height="200" preserveAspectRatio="xMidYMid meet" version="1.0"><defs><g/><clipPath id="8e626d93c3"><path d="M 323 4 L 374.980469 4 L 374.980469 145 L 323 145 Z M 323 4 " clip-rule="nonzero"/></clipPath></defs><g clip-path="url(#8e626d93c3)"><path fill="#00ff43" d="M 324.425781 140.472656 C 330.972656 139.691406 338.527344 142.261719 344.53125 138.640625 C 350.371094 135.125 349.777344 126.8125 349.507812 120.949219 C 348.902344 107.703125 345.71875 91.839844 354.847656 80.558594 C 357.015625 77.886719 359.761719 75.714844 362.832031 74.355469 C 360.851562 73.308594 359.027344 71.9375 357.4375 70.363281 C 352.773438 65.734375 350.222656 59.488281 349.21875 53.0625 C 348.082031 45.820312 348.800781 38.519531 349.339844 31.257812 C 349.613281 27.519531 349.835938 23.761719 349.671875 20.015625 C 349.550781 17.304688 349.230469 14.058594 347.339844 11.945312 C 345.140625 9.484375 341.398438 8.863281 338.269531 8.792969 C 334.058594 8.695312 329.902344 9.355469 325.695312 8.855469 C 324.039062 8.65625 322.632812 4.558594 324.9375 4.835938 C 331.535156 5.621094 338.316406 3.429688 344.621094 6.324219 C 350.683594 9.101562 352.625 15.636719 352.898438 21.804688 C 353.230469 29.332031 352.039062 36.8125 351.847656 44.324219 C 351.675781 50.949219 352.261719 58.019531 355.714844 63.84375 C 359.042969 69.457031 365.460938 73.265625 372.0625 72.34375 C 373.488281 72.144531 374.988281 74.933594 374.292969 76.019531 C 374.253906 76.648438 373.90625 77.09375 373.09375 76.980469 C 367.132812 76.152344 361.300781 79.402344 357.625 83.933594 C 353.375 89.183594 351.96875 96.097656 351.738281 102.699219 C 351.480469 110.074219 352.625 117.402344 352.808594 124.761719 C 352.957031 130.726562 352.859375 138.152344 347.511719 142.023438 C 341.269531 146.542969 333.003906 143.71875 325.972656 144.554688 C 324.246094 144.769531 322.441406 140.710938 324.425781 140.472656 Z M 324.425781 140.472656 " fill-opacity="1" fill-rule="nonzero"/></g><g fill="#ffffff" fill-opacity="1"><g transform="translate(87.748766, 89.34293)"><g><path d="M 19.019531 0.734375 C 30.058594 0.734375 36.90625 -4.246094 36.90625 -12.851562 L 36.90625 -12.964844 C 36.90625 -20.773438 32.777344 -23.886719 21.113281 -27.511719 C 14.945312 -29.492188 12.511719 -30.851562 12.511719 -34.019531 L 12.511719 -34.078125 C 12.511719 -36.738281 15 -38.777344 20.265625 -38.777344 C 24.738281 -38.777344 29.265625 -37.472656 32.605469 -35.265625 L 36.003906 -42.683594 C 32.097656 -45.230469 26.152344 -46.699219 20.207031 -46.699219 C 9.792969 -46.699219 3.566406 -41.550781 3.566406 -33.90625 L 3.566406 -33.792969 C 3.566406 -26.210938 7.019531 -22.644531 17.039062 -19.644531 C 25.246094 -17.09375 27.90625 -15.851562 27.90625 -12.792969 L 27.90625 -12.738281 C 27.90625 -9.226562 24.226562 -7.246094 18.679688 -7.246094 C 13.699219 -7.246094 8.886719 -8.605469 5.492188 -10.867188 L 2.09375 -3.507812 C 6.171875 -0.792969 12.453125 0.734375 19.019531 0.734375 Z M 19.019531 0.734375 "/></g></g></g><g fill="#ffffff" fill-opacity="1"><g transform="translate(125.04472, 89.34293)"><g><path d="M 12.058594 0 L 12.058594 -25.246094 C 13.867188 -25.644531 15.511719 -25.8125 16.925781 -25.8125 C 20.433594 -25.8125 22.699219 -24.339844 22.699219 -20.207031 L 22.699219 0 L 31.644531 0 L 31.644531 -20.207031 C 31.644531 -23.605469 32.664062 -25.8125 37.078125 -25.8125 C 41.492188 -25.8125 42.511719 -23.605469 42.511719 -20.207031 L 42.511719 0 L 51.511719 0 L 51.511719 -21.226562 C 51.511719 -30.566406 46.359375 -33.851562 37.925781 -33.851562 C 33.226562 -33.851562 29.4375 -32.550781 27.113281 -29.492188 C 25.078125 -32.664062 21.453125 -33.851562 17.320312 -33.851562 C 14.433594 -33.851562 8.605469 -33.171875 3.058594 -32.152344 L 3.058594 0 Z M 12.058594 0 "/></g></g></g><g fill="#ffffff" fill-opacity="1"><g transform="translate(177.451689, 89.34293)"><g><path d="M 18.226562 -33.625 C 14.09375 -33.625 9.285156 -32.71875 6.847656 -31.757812 L 4.867188 -23.773438 C 8.433594 -25.191406 13.078125 -26.039062 16.304688 -26.039062 C 21.285156 -26.039062 24.113281 -24.566406 24.113281 -20.492188 L 24.113281 -19.304688 C 21.453125 -19.644531 19.132812 -19.757812 16.753906 -19.757812 C 7.867188 -19.757812 2.265625 -16.585938 2.265625 -9.679688 L 2.265625 -9.566406 C 2.265625 -1.925781 8.433594 0.90625 18.398438 0.90625 C 22.8125 0.90625 28.644531 0.28125 33.113281 -0.679688 L 33.113281 -20.773438 C 33.113281 -30.398438 27.226562 -33.625 18.226562 -33.625 Z M 11.492188 -10.132812 C 11.492188 -13.019531 14.207031 -14.039062 18.738281 -14.039062 C 20.152344 -14.039062 22.304688 -13.867188 24.113281 -13.585938 L 24.113281 -6.566406 C 22.246094 -6.285156 20.265625 -6.113281 18.738281 -6.113281 C 14.152344 -6.113281 11.492188 -7.246094 11.492188 -10.019531 Z M 11.492188 -10.132812 "/></g></g></g><g fill="#ffffff" fill-opacity="1"><g transform="translate(211.351922, 89.34293)"><g><path d="M 12.058594 0 L 12.058594 -23.773438 C 12.792969 -23.945312 16.472656 -24.226562 17.832031 -24.226562 L 22.699219 -24.226562 L 22.699219 -32.492188 L 16.359375 -32.492188 C 13.414062 -32.492188 7.8125 -32.265625 3.058594 -31.246094 L 3.058594 0 Z M 12.058594 0 "/></g></g></g><g fill="#ffffff" fill-opacity="1"><g transform="translate(234.046234, 89.34293)"><g><path d="M 24.625 0 L 24.625 -37.585938 L 39.171875 -37.585938 L 39.171875 -45.910156 L 1.132812 -45.910156 L 1.132812 -37.585938 L 15.738281 -37.585938 L 15.738281 0 Z M 24.625 0 "/></g></g></g><g fill="#ffffff" fill-opacity="1"><g transform="translate(272.191143, 89.34293)"><g><path d="M 12 0 L 12 -45.910156 L 3.058594 -45.910156 L 3.058594 0 Z M 12 0 "/></g></g></g><g fill="#00ff43" fill-opacity="1"><g transform="translate(64.732224, 118.155874)"><g><path d="M 5.15625 -1.1875 C 5.445312 -1.1875 5.648438 -1.269531 5.765625 -1.4375 C 5.890625 -1.601562 5.953125 -1.789062 5.953125 -2 L 5.953125 -7.4375 C 5.953125 -7.632812 5.890625 -7.816406 5.765625 -7.984375 C 5.648438 -8.148438 5.445312 -8.234375 5.15625 -8.234375 L 2.359375 -8.234375 L 2.359375 -0.484375 C 2.359375 -0.304688 2.289062 -0.164062 2.15625 -0.0625 C 2.019531 0.03125 1.851562 0.078125 1.65625 0.078125 C 1.1875 0.078125 0.953125 -0.109375 0.953125 -0.484375 L 0.953125 -8.734375 C 0.953125 -9.015625 1.023438 -9.203125 1.171875 -9.296875 C 1.316406 -9.390625 1.492188 -9.4375 1.703125 -9.4375 L 5.453125 -9.4375 C 5.648438 -9.4375 5.859375 -9.390625 6.078125 -9.296875 C 6.304688 -9.210938 6.523438 -9.109375 6.734375 -8.984375 L 6.71875 -8.984375 C 6.925781 -8.828125 7.082031 -8.628906 7.1875 -8.390625 C 7.300781 -8.148438 7.359375 -7.867188 7.359375 -7.546875 L 7.359375 -1.90625 C 7.359375 -1.257812 7.144531 -0.78125 6.71875 -0.46875 C 6.507812 -0.3125 6.296875 -0.191406 6.078125 -0.109375 C 5.859375 -0.0234375 5.648438 0.015625 5.453125 0.015625 L 3.453125 0.015625 C 3.316406 0.015625 3.207031 -0.0390625 3.125 -0.15625 C 3.050781 -0.269531 3.015625 -0.414062 3.015625 -0.59375 C 3.015625 -0.988281 3.1875 -1.1875 3.53125 -1.1875 Z M 5.15625 -1.1875 "/></g></g></g><g fill="#00ff43" fill-opacity="1"><g transform="translate(82.450304, 118.155874)"><g><path d="M 1.71875 0.015625 C 1.414062 0.015625 1.210938 -0.0546875 1.109375 -0.203125 C 1.015625 -0.359375 0.96875 -0.53125 0.96875 -0.71875 L 0.96875 -8.734375 C 0.96875 -8.910156 1.015625 -9.070312 1.109375 -9.21875 C 1.210938 -9.363281 1.414062 -9.4375 1.71875 -9.4375 L 5.84375 -9.4375 C 6.144531 -9.4375 6.300781 -9.238281 6.3125 -8.84375 C 6.332031 -8.4375 6.175781 -8.234375 5.84375 -8.234375 L 2.359375 -8.234375 L 2.359375 -1.1875 L 6.0625 -1.1875 C 6.351562 -1.1875 6.503906 -0.992188 6.515625 -0.609375 C 6.535156 -0.191406 6.382812 0.015625 6.0625 0.015625 Z M 5.40625 -4.90625 C 5.40625 -4.632812 5.304688 -4.398438 5.109375 -4.203125 C 4.921875 -4.015625 4.6875 -3.921875 4.40625 -3.921875 C 4.132812 -3.921875 3.90625 -4.015625 3.71875 -4.203125 C 3.53125 -4.398438 3.4375 -4.632812 3.4375 -4.90625 C 3.4375 -5.1875 3.53125 -5.421875 3.71875 -5.609375 C 3.90625 -5.796875 4.132812 -5.890625 4.40625 -5.890625 C 4.6875 -5.890625 4.921875 -5.796875 5.109375 -5.609375 C 5.304688 -5.421875 5.40625 -5.1875 5.40625 -4.90625 Z M 5.40625 -4.90625 "/></g></g></g><g fill="#00ff43" fill-opacity="1"><g transform="translate(98.812766, 118.155874)"><g><path d="M 5.453125 -5.4375 C 5.660156 -5.4375 5.875 -5.390625 6.09375 -5.296875 C 6.320312 -5.210938 6.535156 -5.097656 6.734375 -4.953125 C 6.941406 -4.816406 7.097656 -4.625 7.203125 -4.375 C 7.316406 -4.125 7.375 -3.84375 7.375 -3.53125 L 7.375 -1.90625 C 7.375 -1.257812 7.160156 -0.78125 6.734375 -0.46875 C 6.523438 -0.3125 6.3125 -0.191406 6.09375 -0.109375 C 5.875 -0.0234375 5.660156 0.015625 5.453125 0.015625 L 2.859375 0.015625 C 2.660156 0.015625 2.453125 -0.0234375 2.234375 -0.109375 C 2.015625 -0.191406 1.800781 -0.3125 1.59375 -0.46875 C 1.164062 -0.78125 0.953125 -1.257812 0.953125 -1.90625 L 0.953125 -2.6875 C 0.953125 -3.0625 1.1875 -3.25 1.65625 -3.25 C 2.125 -3.25 2.359375 -3.0625 2.359375 -2.6875 L 2.359375 -2 C 2.359375 -1.789062 2.414062 -1.601562 2.53125 -1.4375 C 2.65625 -1.269531 2.863281 -1.1875 3.15625 -1.1875 L 5.15625 -1.1875 C 5.445312 -1.1875 5.648438 -1.269531 5.765625 -1.4375 C 5.890625 -1.601562 5.953125 -1.789062 5.953125 -2 L 5.953125 -3.4375 C 5.953125 -3.632812 5.890625 -3.816406 5.765625 -3.984375 C 5.648438 -4.160156 5.445312 -4.25 5.15625 -4.25 L 2.859375 -4.25 C 2.453125 -4.25 2.03125 -4.398438 1.59375 -4.703125 C 1.164062 -5.035156 0.953125 -5.515625 0.953125 -6.140625 L 0.953125 -7.546875 C 0.953125 -7.867188 1.003906 -8.148438 1.109375 -8.390625 C 1.222656 -8.628906 1.382812 -8.828125 1.59375 -8.984375 L 1.578125 -8.984375 C 1.785156 -9.109375 2 -9.210938 2.21875 -9.296875 C 2.445312 -9.390625 2.660156 -9.4375 2.859375 -9.4375 L 5.453125 -9.4375 C 5.660156 -9.4375 5.875 -9.390625 6.09375 -9.296875 C 6.320312 -9.210938 6.535156 -9.109375 6.734375 -8.984375 C 6.941406 -8.828125 7.097656 -8.628906 7.203125 -8.390625 C 7.316406 -8.148438 7.375 -7.867188 7.375 -7.546875 L 7.375 -6.84375 C 7.375 -6.476562 7.132812 -6.296875 6.65625 -6.296875 C 6.1875 -6.296875 5.953125 -6.476562 5.953125 -6.84375 L 5.953125 -7.4375 C 5.953125 -7.632812 5.890625 -7.816406 5.765625 -7.984375 C 5.648438 -8.148438 5.445312 -8.234375 5.15625 -8.234375 L 3.15625 -8.234375 C 2.863281 -8.234375 2.65625 -8.148438 2.53125 -7.984375 C 2.414062 -7.816406 2.359375 -7.632812 2.359375 -7.4375 L 2.359375 -6.234375 C 2.359375 -6.023438 2.414062 -5.835938 2.53125 -5.671875 C 2.65625 -5.515625 2.863281 -5.4375 3.15625 -5.4375 Z M 5.453125 -5.4375 "/></g></g></g><g fill="#00ff43" fill-opacity="1"><g transform="translate(116.614088, 118.155874)"><g><path d="M 1.71875 0.015625 C 1.414062 0.015625 1.210938 -0.0546875 1.109375 -0.203125 C 1.015625 -0.359375 0.96875 -0.53125 0.96875 -0.71875 L 0.96875 -8.734375 C 0.96875 -8.910156 1.015625 -9.070312 1.109375 -9.21875 C 1.210938 -9.363281 1.414062 -9.4375 1.71875 -9.4375 L 5.84375 -9.4375 C 6.144531 -9.4375 6.300781 -9.238281 6.3125 -8.84375 C 6.332031 -8.4375 6.175781 -8.234375 5.84375 -8.234375 L 2.359375 -8.234375 L 2.359375 -1.1875 L 6.0625 -1.1875 C 6.351562 -1.1875 6.503906 -0.992188 6.515625 -0.609375 C 6.535156 -0.191406 6.382812 0.015625 6.0625 0.015625 Z M 5.40625 -4.90625 C 5.40625 -4.632812 5.304688 -4.398438 5.109375 -4.203125 C 4.921875 -4.015625 4.6875 -3.921875 4.40625 -3.921875 C 4.132812 -3.921875 3.90625 -4.015625 3.71875 -4.203125 C 3.53125 -4.398438 3.4375 -4.632812 3.4375 -4.90625 C 3.4375 -5.1875 3.53125 -5.421875 3.71875 -5.609375 C 3.90625 -5.796875 4.132812 -5.890625 4.40625 -5.890625 C 4.6875 -5.890625 4.921875 -5.796875 5.109375 -5.609375 C 5.304688 -5.421875 5.40625 -5.1875 5.40625 -4.90625 Z M 5.40625 -4.90625 "/></g></g></g><g fill="#00ff43" fill-opacity="1"><g transform="translate(132.976548, 118.155874)"><g><path d="M 6.21875 -8.9375 C 6.21875 -9.3125 6.453125 -9.5 6.921875 -9.5 C 7.390625 -9.5 7.625 -9.3125 7.625 -8.9375 L 7.625 -0.71875 C 7.625 -0.445312 7.476562 -0.25 7.1875 -0.125 C 7.0625 -0.0625 6.925781 -0.015625 6.78125 0.015625 C 6.644531 0.046875 6.507812 0.0625 6.375 0.0625 C 6.269531 0.0625 6.160156 0.0507812 6.046875 0.03125 C 5.941406 0.0078125 5.835938 -0.0195312 5.734375 -0.0625 C 5.640625 -0.101562 5.550781 -0.160156 5.46875 -0.234375 C 5.382812 -0.316406 5.316406 -0.410156 5.265625 -0.515625 L 2.6875 -6.953125 L 2.359375 -6.921875 L 2.359375 -0.5 C 2.359375 -0.113281 2.125 0.078125 1.65625 0.078125 C 1.1875 0.078125 0.953125 -0.113281 0.953125 -0.5 L 0.953125 -8.6875 C 0.953125 -9.007812 1.09375 -9.226562 1.375 -9.34375 C 1.632812 -9.445312 1.914062 -9.5 2.21875 -9.5 C 2.414062 -9.5 2.617188 -9.457031 2.828125 -9.375 C 3.046875 -9.289062 3.207031 -9.132812 3.3125 -8.90625 L 5.890625 -2.46875 L 6.21875 -2.5 Z M 6.21875 -8.9375 "/></g></g></g><g fill="#00ff43" fill-opacity="1"><g transform="translate(150.932458, 118.155874)"><g><path d="M 3.75 0.0625 C 3.582031 0.0625 3.410156 0.0351562 3.234375 -0.015625 C 3.054688 -0.0664062 2.929688 -0.164062 2.859375 -0.3125 C 2.671875 -0.925781 2.476562 -1.554688 2.28125 -2.203125 C 2.082031 -2.859375 1.882812 -3.5 1.6875 -4.125 C 1.46875 -4.863281 1.226562 -5.628906 0.96875 -6.421875 C 0.71875 -7.222656 0.484375 -7.988281 0.265625 -8.71875 C 0.210938 -8.894531 0.238281 -9.046875 0.34375 -9.171875 C 0.445312 -9.304688 0.59375 -9.40625 0.78125 -9.46875 C 0.90625 -9.5 1.007812 -9.515625 1.09375 -9.515625 C 1.363281 -9.515625 1.535156 -9.378906 1.609375 -9.109375 L 2.5 -6.296875 C 2.570312 -6.003906 2.660156 -5.6875 2.765625 -5.34375 C 2.878906 -5.007812 2.988281 -4.660156 3.09375 -4.296875 C 3.207031 -3.941406 3.320312 -3.585938 3.4375 -3.234375 C 3.550781 -2.890625 3.65625 -2.566406 3.75 -2.265625 C 3.894531 -2.765625 4.054688 -3.300781 4.234375 -3.875 C 4.410156 -4.457031 4.59375 -5.050781 4.78125 -5.65625 C 4.96875 -6.257812 5.148438 -6.851562 5.328125 -7.4375 C 5.515625 -8.03125 5.6875 -8.585938 5.84375 -9.109375 C 5.9375 -9.378906 6.109375 -9.515625 6.359375 -9.515625 C 6.453125 -9.515625 6.5625 -9.5 6.6875 -9.46875 C 7.125 -9.34375 7.296875 -9.09375 7.203125 -8.71875 C 6.773438 -7.332031 6.34375 -5.929688 5.90625 -4.515625 C 5.46875 -3.109375 5.035156 -1.707031 4.609375 -0.3125 C 4.546875 -0.15625 4.425781 -0.0507812 4.25 0 C 4.082031 0.0390625 3.914062 0.0625 3.75 0.0625 Z M 3.75 0.0625 "/></g></g></g><g fill="#00ff43" fill-opacity="1"><g transform="translate(167.830035, 118.155874)"><g><path d="M 5.453125 -9.4375 C 5.648438 -9.4375 5.859375 -9.390625 6.078125 -9.296875 C 6.304688 -9.210938 6.523438 -9.109375 6.734375 -8.984375 L 6.71875 -8.984375 C 6.925781 -8.828125 7.082031 -8.628906 7.1875 -8.390625 C 7.300781 -8.148438 7.359375 -7.867188 7.359375 -7.546875 L 7.359375 -1.90625 C 7.359375 -1.257812 7.144531 -0.78125 6.71875 -0.46875 C 6.507812 -0.3125 6.296875 -0.191406 6.078125 -0.109375 C 5.859375 -0.0234375 5.648438 0.015625 5.453125 0.015625 L 2.859375 0.015625 C 2.648438 0.015625 2.4375 -0.0234375 2.21875 -0.109375 C 2 -0.191406 1.785156 -0.3125 1.578125 -0.46875 C 1.367188 -0.625 1.207031 -0.816406 1.09375 -1.046875 C 0.988281 -1.285156 0.9375 -1.570312 0.9375 -1.90625 L 0.9375 -7.546875 C 0.9375 -7.867188 0.988281 -8.148438 1.09375 -8.390625 C 1.207031 -8.628906 1.367188 -8.828125 1.578125 -8.984375 L 1.5625 -8.984375 C 1.769531 -9.109375 1.984375 -9.210938 2.203125 -9.296875 C 2.429688 -9.390625 2.648438 -9.4375 2.859375 -9.4375 Z M 5.15625 -1.1875 C 5.445312 -1.1875 5.648438 -1.269531 5.765625 -1.4375 C 5.890625 -1.601562 5.953125 -1.789062 5.953125 -2 L 5.953125 -7.4375 C 5.953125 -7.632812 5.890625 -7.816406 5.765625 -7.984375 C 5.648438 -8.148438 5.445312 -8.234375 5.15625 -8.234375 L 3.15625 -8.234375 C 2.863281 -8.234375 2.65625 -8.148438 2.53125 -7.984375 C 2.414062 -7.816406 2.359375 -7.632812 2.359375 -7.4375 L 2.359375 -2 C 2.359375 -1.789062 2.414062 -1.601562 2.53125 -1.4375 C 2.65625 -1.269531 2.863281 -1.1875 3.15625 -1.1875 Z M 5.15625 -1.1875 "/></g></g></g><g fill="#00ff43" fill-opacity="1"><g transform="translate(185.548113, 118.155874)"><g><path d="M 1.703125 0.015625 C 1.410156 0.015625 1.210938 -0.0546875 1.109375 -0.203125 C 1.003906 -0.359375 0.953125 -0.53125 0.953125 -0.71875 L 0.953125 -8.9375 C 0.953125 -9.3125 1.179688 -9.5 1.640625 -9.5 C 2.117188 -9.5 2.359375 -9.3125 2.359375 -8.9375 L 2.359375 -1.1875 L 6.328125 -1.1875 C 6.609375 -1.1875 6.75 -0.992188 6.75 -0.609375 C 6.769531 -0.191406 6.628906 0.015625 6.328125 0.015625 Z M 1.703125 0.015625 "/></g></g></g><g fill="#00ff43" fill-opacity="1"><g transform="translate(201.95815, 118.155874)"><g><path d="M 3.75 0.0625 C 3.582031 0.0625 3.410156 0.0351562 3.234375 -0.015625 C 3.054688 -0.0664062 2.929688 -0.164062 2.859375 -0.3125 C 2.671875 -0.925781 2.476562 -1.554688 2.28125 -2.203125 C 2.082031 -2.859375 1.882812 -3.5 1.6875 -4.125 C 1.46875 -4.863281 1.226562 -5.628906 0.96875 -6.421875 C 0.71875 -7.222656 0.484375 -7.988281 0.265625 -8.71875 C 0.210938 -8.894531 0.238281 -9.046875 0.34375 -9.171875 C 0.445312 -9.304688 0.59375 -9.40625 0.78125 -9.46875 C 0.90625 -9.5 1.007812 -9.515625 1.09375 -9.515625 C 1.363281 -9.515625 1.535156 -9.378906 1.609375 -9.109375 L 2.5 -6.296875 C 2.570312 -6.003906 2.660156 -5.6875 2.765625 -5.34375 C 2.878906 -5.007812 2.988281 -4.660156 3.09375 -4.296875 C 3.207031 -3.941406 3.320312 -3.585938 3.4375 -3.234375 C 3.550781 -2.890625 3.65625 -2.566406 3.75 -2.265625 C 3.894531 -2.765625 4.054688 -3.300781 4.234375 -3.875 C 4.410156 -4.457031 4.59375 -5.050781 4.78125 -5.65625 C 4.96875 -6.257812 5.148438 -6.851562 5.328125 -7.4375 C 5.515625 -8.03125 5.6875 -8.585938 5.84375 -9.109375 C 5.9375 -9.378906 6.109375 -9.515625 6.359375 -9.515625 C 6.453125 -9.515625 6.5625 -9.5 6.6875 -9.46875 C 7.125 -9.34375 7.296875 -9.09375 7.203125 -8.71875 C 6.773438 -7.332031 6.34375 -5.929688 5.90625 -4.515625 C 5.46875 -3.109375 5.035156 -1.707031 4.609375 -0.3125 C 4.546875 -0.15625 4.425781 -0.0507812 4.25 0 C 4.082031 0.0390625 3.914062 0.0625 3.75 0.0625 Z M 3.75 0.0625 "/></g></g></g><g fill="#00ff43" fill-opacity="1"><g transform="translate(218.855735, 118.155874)"><g><path d="M 2.40625 -0.5 C 2.40625 -0.113281 2.171875 0.078125 1.703125 0.078125 C 1.234375 0.078125 1 -0.113281 1 -0.5 L 1 -8.9375 C 1 -9.3125 1.234375 -9.5 1.703125 -9.5 C 2.171875 -9.5 2.40625 -9.3125 2.40625 -8.9375 Z M 2.40625 -0.5 "/></g></g></g><g fill="#00ff43" fill-opacity="1"><g transform="translate(231.734033, 118.155874)"><g><path d="M 8.234375 -9.5 C 8.492188 -9.5 8.773438 -9.441406 9.078125 -9.328125 C 9.347656 -9.210938 9.484375 -9 9.484375 -8.6875 L 9.484375 -0.5 C 9.484375 -0.113281 9.25 0.078125 8.78125 0.078125 C 8.3125 0.078125 8.078125 -0.113281 8.078125 -0.5 L 8.078125 -6.609375 L 7.734375 -6.640625 L 7.265625 -5.09375 L 5.84375 -0.34375 C 5.75 -0.0625 5.535156 0.0703125 5.203125 0.0625 C 5.046875 0.0507812 4.910156 0.0078125 4.796875 -0.0625 C 4.691406 -0.132812 4.617188 -0.238281 4.578125 -0.375 L 3.71875 -3.140625 C 3.539062 -3.679688 3.363281 -4.234375 3.1875 -4.796875 C 3.019531 -5.367188 2.832031 -6 2.625 -6.6875 L 2.28125 -6.640625 L 2.28125 -0.5 C 2.28125 -0.113281 2.046875 0.078125 1.578125 0.078125 C 1.109375 0.078125 0.875 -0.113281 0.875 -0.5 L 0.875 -8.6875 C 0.875 -8.988281 1.015625 -9.203125 1.296875 -9.328125 C 1.585938 -9.441406 1.867188 -9.492188 2.140625 -9.484375 C 2.253906 -9.484375 2.375 -9.46875 2.5 -9.4375 C 2.632812 -9.40625 2.753906 -9.359375 2.859375 -9.296875 C 2.972656 -9.242188 3.070312 -9.171875 3.15625 -9.078125 C 3.25 -8.984375 3.316406 -8.878906 3.359375 -8.765625 L 5.234375 -2.40625 C 5.367188 -2.875 5.507812 -3.378906 5.65625 -3.921875 C 5.8125 -4.472656 5.96875 -5.03125 6.125 -5.59375 C 6.28125 -6.15625 6.4375 -6.707031 6.59375 -7.25 C 6.75 -7.800781 6.894531 -8.316406 7.03125 -8.796875 C 7.070312 -8.910156 7.132812 -9.007812 7.21875 -9.09375 C 7.3125 -9.1875 7.410156 -9.257812 7.515625 -9.3125 C 7.628906 -9.375 7.75 -9.421875 7.875 -9.453125 C 8 -9.484375 8.117188 -9.5 8.234375 -9.5 Z M 8.234375 -9.5 "/></g></g></g><g fill="#00ff43" fill-opacity="1"><g transform="translate(251.461762, 118.155874)"><g><path d="M 1.71875 0.015625 C 1.414062 0.015625 1.210938 -0.0546875 1.109375 -0.203125 C 1.015625 -0.359375 0.96875 -0.53125 0.96875 -0.71875 L 0.96875 -8.734375 C 0.96875 -8.910156 1.015625 -9.070312 1.109375 -9.21875 C 1.210938 -9.363281 1.414062 -9.4375 1.71875 -9.4375 L 5.84375 -9.4375 C 6.144531 -9.4375 6.300781 -9.238281 6.3125 -8.84375 C 6.332031 -8.4375 6.175781 -8.234375 5.84375 -8.234375 L 2.359375 -8.234375 L 2.359375 -1.1875 L 6.0625 -1.1875 C 6.351562 -1.1875 6.503906 -0.992188 6.515625 -0.609375 C 6.535156 -0.191406 6.382812 0.015625 6.0625 0.015625 Z M 5.40625 -4.90625 C 5.40625 -4.632812 5.304688 -4.398438 5.109375 -4.203125 C 4.921875 -4.015625 4.6875 -3.921875 4.40625 -3.921875 C 4.132812 -3.921875 3.90625 -4.015625 3.71875 -4.203125 C 3.53125 -4.398438 3.4375 -4.632812 3.4375 -4.90625 C 3.4375 -5.1875 3.53125 -5.421875 3.71875 -5.609375 C 3.90625 -5.796875 4.132812 -5.890625 4.40625 -5.890625 C 4.6875 -5.890625 4.921875 -5.796875 5.109375 -5.609375 C 5.304688 -5.421875 5.40625 -5.1875 5.40625 -4.90625 Z M 5.40625 -4.90625 "/></g></g></g><g fill="#00ff43" fill-opacity="1"><g transform="translate(267.82423, 118.155874)"><g><path d="M 6.21875 -8.9375 C 6.21875 -9.3125 6.453125 -9.5 6.921875 -9.5 C 7.390625 -9.5 7.625 -9.3125 7.625 -8.9375 L 7.625 -0.71875 C 7.625 -0.445312 7.476562 -0.25 7.1875 -0.125 C 7.0625 -0.0625 6.925781 -0.015625 6.78125 0.015625 C 6.644531 0.046875 6.507812 0.0625 6.375 0.0625 C 6.269531 0.0625 6.160156 0.0507812 6.046875 0.03125 C 5.941406 0.0078125 5.835938 -0.0195312 5.734375 -0.0625 C 5.640625 -0.101562 5.550781 -0.160156 5.46875 -0.234375 C 5.382812 -0.316406 5.316406 -0.410156 5.265625 -0.515625 L 2.6875 -6.953125 L 2.359375 -6.921875 L 2.359375 -0.5 C 2.359375 -0.113281 2.125 0.078125 1.65625 0.078125 C 1.1875 0.078125 0.953125 -0.113281 0.953125 -0.5 L 0.953125 -8.6875 C 0.953125 -9.007812 1.09375 -9.226562 1.375 -9.34375 C 1.632812 -9.445312 1.914062 -9.5 2.21875 -9.5 C 2.414062 -9.5 2.617188 -9.457031 2.828125 -9.375 C 3.046875 -9.289062 3.207031 -9.132812 3.3125 -8.90625 L 5.890625 -2.46875 L 6.21875 -2.5 Z M 6.21875 -8.9375 "/></g></g></g><g fill="#00ff43" fill-opacity="1"><g transform="translate(285.780147, 118.155874)"><g><path d="M 4.125 -0.46875 C 4.125 -0.09375 3.882812 0.09375 3.40625 0.09375 C 2.945312 0.09375 2.71875 -0.09375 2.71875 -0.46875 L 2.71875 -8.234375 L 0.625 -8.234375 C 0.34375 -8.234375 0.191406 -8.4375 0.171875 -8.84375 C 0.171875 -9.238281 0.320312 -9.4375 0.625 -9.4375 L 6.203125 -9.4375 C 6.503906 -9.4375 6.648438 -9.238281 6.640625 -8.84375 C 6.640625 -8.4375 6.492188 -8.234375 6.203125 -8.234375 L 4.125 -8.234375 Z M 4.125 -0.46875 "/></g></g></g><g fill="#00ff43" fill-opacity="1"><g transform="translate(302.035592, 118.155874)"><g><path d="M 5.453125 -9.4375 C 5.648438 -9.4375 5.859375 -9.390625 6.078125 -9.296875 C 6.304688 -9.210938 6.523438 -9.109375 6.734375 -8.984375 L 6.71875 -8.984375 C 6.925781 -8.828125 7.082031 -8.628906 7.1875 -8.390625 C 7.300781 -8.148438 7.359375 -7.867188 7.359375 -7.546875 L 7.359375 -1.90625 C 7.359375 -1.257812 7.144531 -0.78125 6.71875 -0.46875 C 6.507812 -0.3125 6.296875 -0.191406 6.078125 -0.109375 C 5.859375 -0.0234375 5.648438 0.015625 5.453125 0.015625 L 2.859375 0.015625 C 2.648438 0.015625 2.4375 -0.0234375 2.21875 -0.109375 C 2 -0.191406 1.785156 -0.3125 1.578125 -0.46875 C 1.367188 -0.625 1.207031 -0.816406 1.09375 -1.046875 C 0.988281 -1.285156 0.9375 -1.570312 0.9375 -1.90625 L 0.9375 -7.546875 C 0.9375 -7.867188 0.988281 -8.148438 1.09375 -8.390625 C 1.207031 -8.628906 1.367188 -8.828125 1.578125 -8.984375 L 1.5625 -8.984375 C 1.769531 -9.109375 1.984375 -9.210938 2.203125 -9.296875 C 2.429688 -9.390625 2.648438 -9.4375 2.859375 -9.4375 Z M 5.15625 -1.1875 C 5.445312 -1.1875 5.648438 -1.269531 5.765625 -1.4375 C 5.890625 -1.601562 5.953125 -1.789062 5.953125 -2 L 5.953125 -7.4375 C 5.953125 -7.632812 5.890625 -7.816406 5.765625 -7.984375 C 5.648438 -8.148438 5.445312 -8.234375 5.15625 -8.234375 L 3.15625 -8.234375 C 2.863281 -8.234375 2.65625 -8.148438 2.53125 -7.984375 C 2.414062 -7.816406 2.359375 -7.632812 2.359375 -7.4375 L 2.359375 -2 C 2.359375 -1.789062 2.414062 -1.601562 2.53125 -1.4375 C 2.65625 -1.269531 2.863281 -1.1875 3.15625 -1.1875 Z M 5.15625 -1.1875 "/></g></g></g><g fill="#00ff43" fill-opacity="1"><g transform="translate(98.749362, 132.029044)"><g><path d="M 5.15625 -1.1875 C 5.445312 -1.1875 5.648438 -1.269531 5.765625 -1.4375 C 5.890625 -1.601562 5.953125 -1.789062 5.953125 -2 L 5.953125 -7.4375 C 5.953125 -7.632812 5.890625 -7.816406 5.765625 -7.984375 C 5.648438 -8.148438 5.445312 -8.234375 5.15625 -8.234375 L 2.359375 -8.234375 L 2.359375 -0.484375 C 2.359375 -0.304688 2.289062 -0.164062 2.15625 -0.0625 C 2.019531 0.03125 1.851562 0.078125 1.65625 0.078125 C 1.1875 0.078125 0.953125 -0.109375 0.953125 -0.484375 L 0.953125 -8.734375 C 0.953125 -9.015625 1.023438 -9.203125 1.171875 -9.296875 C 1.316406 -9.390625 1.492188 -9.4375 1.703125 -9.4375 L 5.453125 -9.4375 C 5.648438 -9.4375 5.859375 -9.390625 6.078125 -9.296875 C 6.304688 -9.210938 6.523438 -9.109375 6.734375 -8.984375 L 6.71875 -8.984375 C 6.925781 -8.828125 7.082031 -8.628906 7.1875 -8.390625 C 7.300781 -8.148438 7.359375 -7.867188 7.359375 -7.546875 L 7.359375 -1.90625 C 7.359375 -1.257812 7.144531 -0.78125 6.71875 -0.46875 C 6.507812 -0.3125 6.296875 -0.191406 6.078125 -0.109375 C 5.859375 -0.0234375 5.648438 0.015625 5.453125 0.015625 L 3.453125 0.015625 C 3.316406 0.015625 3.207031 -0.0390625 3.125 -0.15625 C 3.050781 -0.269531 3.015625 -0.414062 3.015625 -0.59375 C 3.015625 -0.988281 3.1875 -1.1875 3.53125 -1.1875 Z M 5.15625 -1.1875 "/></g></g></g><g fill="#00ff43" fill-opacity="1"><g transform="translate(116.467443, 132.029044)"><g><path d="M 1.71875 0.015625 C 1.414062 0.015625 1.210938 -0.0546875 1.109375 -0.203125 C 1.015625 -0.359375 0.96875 -0.53125 0.96875 -0.71875 L 0.96875 -8.734375 C 0.96875 -8.910156 1.015625 -9.070312 1.109375 -9.21875 C 1.210938 -9.363281 1.414062 -9.4375 1.71875 -9.4375 L 5.84375 -9.4375 C 6.144531 -9.4375 6.300781 -9.238281 6.3125 -8.84375 C 6.332031 -8.4375 6.175781 -8.234375 5.84375 -8.234375 L 2.359375 -8.234375 L 2.359375 -1.1875 L 6.0625 -1.1875 C 6.351562 -1.1875 6.503906 -0.992188 6.515625 -0.609375 C 6.535156 -0.191406 6.382812 0.015625 6.0625 0.015625 Z M 5.40625 -4.90625 C 5.40625 -4.632812 5.304688 -4.398438 5.109375 -4.203125 C 4.921875 -4.015625 4.6875 -3.921875 4.40625 -3.921875 C 4.132812 -3.921875 3.90625 -4.015625 3.71875 -4.203125 C 3.53125 -4.398438 3.4375 -4.632812 3.4375 -4.90625 C 3.4375 -5.1875 3.53125 -5.421875 3.71875 -5.609375 C 3.90625 -5.796875 4.132812 -5.890625 4.40625 -5.890625 C 4.6875 -5.890625 4.921875 -5.796875 5.109375 -5.609375 C 5.304688 -5.421875 5.40625 -5.1875 5.40625 -4.90625 Z M 5.40625 -4.90625 "/></g></g></g><g fill="#00ff43" fill-opacity="1"><g transform="translate(132.829905, 132.029044)"><g/></g></g><g fill="#00ff43" fill-opacity="1"><g transform="translate(145.910346, 132.029044)"><g><path d="M 5.453125 -5.4375 C 5.660156 -5.4375 5.875 -5.390625 6.09375 -5.296875 C 6.320312 -5.210938 6.535156 -5.097656 6.734375 -4.953125 C 6.941406 -4.816406 7.097656 -4.625 7.203125 -4.375 C 7.316406 -4.125 7.375 -3.84375 7.375 -3.53125 L 7.375 -1.90625 C 7.375 -1.257812 7.160156 -0.78125 6.734375 -0.46875 C 6.523438 -0.3125 6.3125 -0.191406 6.09375 -0.109375 C 5.875 -0.0234375 5.660156 0.015625 5.453125 0.015625 L 2.859375 0.015625 C 2.660156 0.015625 2.453125 -0.0234375 2.234375 -0.109375 C 2.015625 -0.191406 1.800781 -0.3125 1.59375 -0.46875 C 1.164062 -0.78125 0.953125 -1.257812 0.953125 -1.90625 L 0.953125 -2.6875 C 0.953125 -3.0625 1.1875 -3.25 1.65625 -3.25 C 2.125 -3.25 2.359375 -3.0625 2.359375 -2.6875 L 2.359375 -2 C 2.359375 -1.789062 2.414062 -1.601562 2.53125 -1.4375 C 2.65625 -1.269531 2.863281 -1.1875 3.15625 -1.1875 L 5.15625 -1.1875 C 5.445312 -1.1875 5.648438 -1.269531 5.765625 -1.4375 C 5.890625 -1.601562 5.953125 -1.789062 5.953125 -2 L 5.953125 -3.4375 C 5.953125 -3.632812 5.890625 -3.816406 5.765625 -3.984375 C 5.648438 -4.160156 5.445312 -4.25 5.15625 -4.25 L 2.859375 -4.25 C 2.453125 -4.25 2.03125 -4.398438 1.59375 -4.703125 C 1.164062 -5.035156 0.953125 -5.515625 0.953125 -6.140625 L 0.953125 -7.546875 C 0.953125 -7.867188 1.003906 -8.148438 1.109375 -8.390625 C 1.222656 -8.628906 1.382812 -8.828125 1.59375 -8.984375 L 1.578125 -8.984375 C 1.785156 -9.109375 2 -9.210938 2.21875 -9.296875 C 2.445312 -9.390625 2.660156 -9.4375 2.859375 -9.4375 L 5.453125 -9.4375 C 5.660156 -9.4375 5.875 -9.390625 6.09375 -9.296875 C 6.320312 -9.210938 6.535156 -9.109375 6.734375 -8.984375 C 6.941406 -8.828125 7.097656 -8.628906 7.203125 -8.390625 C 7.316406 -8.148438 7.375 -7.867188 7.375 -7.546875 L 7.375 -6.84375 C 7.375 -6.476562 7.132812 -6.296875 6.65625 -6.296875 C 6.1875 -6.296875 5.953125 -6.476562 5.953125 -6.84375 L 5.953125 -7.4375 C 5.953125 -7.632812 5.890625 -7.816406 5.765625 -7.984375 C 5.648438 -8.148438 5.445312 -8.234375 5.15625 -8.234375 L 3.15625 -8.234375 C 2.863281 -8.234375 2.65625 -8.148438 2.53125 -7.984375 C 2.414062 -7.816406 2.359375 -7.632812 2.359375 -7.4375 L 2.359375 -6.234375 C 2.359375 -6.023438 2.414062 -5.835938 2.53125 -5.671875 C 2.65625 -5.515625 2.863281 -5.4375 3.15625 -5.4375 Z M 5.453125 -5.4375 "/></g></g></g><g fill="#00ff43" fill-opacity="1"><g transform="translate(163.711664, 132.029044)"><g><path d="M 5.453125 -9.4375 C 5.648438 -9.4375 5.859375 -9.390625 6.078125 -9.296875 C 6.304688 -9.210938 6.523438 -9.109375 6.734375 -8.984375 L 6.71875 -8.984375 C 6.925781 -8.828125 7.082031 -8.628906 7.1875 -8.390625 C 7.300781 -8.148438 7.359375 -7.867188 7.359375 -7.546875 L 7.359375 -1.90625 C 7.359375 -1.257812 7.144531 -0.78125 6.71875 -0.46875 C 6.507812 -0.3125 6.296875 -0.191406 6.078125 -0.109375 C 5.859375 -0.0234375 5.648438 0.015625 5.453125 0.015625 L 2.859375 0.015625 C 2.648438 0.015625 2.4375 -0.0234375 2.21875 -0.109375 C 2 -0.191406 1.785156 -0.3125 1.578125 -0.46875 C 1.367188 -0.625 1.207031 -0.816406 1.09375 -1.046875 C 0.988281 -1.285156 0.9375 -1.570312 0.9375 -1.90625 L 0.9375 -7.546875 C 0.9375 -7.867188 0.988281 -8.148438 1.09375 -8.390625 C 1.207031 -8.628906 1.367188 -8.828125 1.578125 -8.984375 L 1.5625 -8.984375 C 1.769531 -9.109375 1.984375 -9.210938 2.203125 -9.296875 C 2.429688 -9.390625 2.648438 -9.4375 2.859375 -9.4375 Z M 5.15625 -1.1875 C 5.445312 -1.1875 5.648438 -1.269531 5.765625 -1.4375 C 5.890625 -1.601562 5.953125 -1.789062 5.953125 -2 L 5.953125 -7.4375 C 5.953125 -7.632812 5.890625 -7.816406 5.765625 -7.984375 C 5.648438 -8.148438 5.445312 -8.234375 5.15625 -8.234375 L 3.15625 -8.234375 C 2.863281 -8.234375 2.65625 -8.148438 2.53125 -7.984375 C 2.414062 -7.816406 2.359375 -7.632812 2.359375 -7.4375 L 2.359375 -2 C 2.359375 -1.789062 2.414062 -1.601562 2.53125 -1.4375 C 2.65625 -1.269531 2.863281 -1.1875 3.15625 -1.1875 Z M 5.15625 -1.1875 "/></g></g></g><g fill="#00ff43" fill-opacity="1"><g transform="translate(181.429742, 132.029044)"><g><path d="M 2.359375 -0.5 C 2.359375 -0.113281 2.128906 0.078125 1.671875 0.078125 C 1.203125 0.078125 0.96875 -0.113281 0.96875 -0.5 L 0.96875 -8.734375 C 0.96875 -8.910156 1.015625 -9.070312 1.109375 -9.21875 C 1.210938 -9.363281 1.414062 -9.4375 1.71875 -9.4375 L 5.75 -9.4375 C 6.039062 -9.4375 6.191406 -9.238281 6.203125 -8.84375 C 6.222656 -8.4375 6.070312 -8.234375 5.75 -8.234375 L 2.359375 -8.234375 Z M 5.40625 -4.90625 C 5.40625 -4.769531 5.378906 -4.640625 5.328125 -4.515625 C 5.273438 -4.398438 5.203125 -4.296875 5.109375 -4.203125 C 5.023438 -4.117188 4.921875 -4.050781 4.796875 -4 C 4.679688 -3.945312 4.550781 -3.921875 4.40625 -3.921875 C 4.132812 -3.921875 3.90625 -4.015625 3.71875 -4.203125 C 3.53125 -4.398438 3.4375 -4.632812 3.4375 -4.90625 C 3.4375 -5.1875 3.53125 -5.421875 3.71875 -5.609375 C 3.90625 -5.796875 4.132812 -5.890625 4.40625 -5.890625 C 4.550781 -5.890625 4.679688 -5.863281 4.796875 -5.8125 C 4.921875 -5.769531 5.023438 -5.703125 5.109375 -5.609375 C 5.203125 -5.515625 5.273438 -5.40625 5.328125 -5.28125 C 5.378906 -5.164062 5.40625 -5.039062 5.40625 -4.90625 Z M 5.40625 -4.90625 "/></g></g></g><g fill="#00ff43" fill-opacity="1"><g transform="translate(197.494917, 132.029044)"><g><path d="M 4.125 -0.46875 C 4.125 -0.09375 3.882812 0.09375 3.40625 0.09375 C 2.945312 0.09375 2.71875 -0.09375 2.71875 -0.46875 L 2.71875 -8.234375 L 0.625 -8.234375 C 0.34375 -8.234375 0.191406 -8.4375 0.171875 -8.84375 C 0.171875 -9.238281 0.320312 -9.4375 0.625 -9.4375 L 6.203125 -9.4375 C 6.503906 -9.4375 6.648438 -9.238281 6.640625 -8.84375 C 6.640625 -8.4375 6.492188 -8.234375 6.203125 -8.234375 L 4.125 -8.234375 Z M 4.125 -0.46875 "/></g></g></g><g fill="#00ff43" fill-opacity="1"><g transform="translate(213.750354, 132.029044)"><g><path d="M 9.421875 -9.046875 L 9.40625 -9.03125 C 9.457031 -9.207031 9.550781 -9.332031 9.6875 -9.40625 C 9.820312 -9.488281 10.003906 -9.515625 10.234375 -9.484375 C 10.460938 -9.441406 10.625 -9.367188 10.71875 -9.265625 C 10.820312 -9.160156 10.847656 -9.015625 10.796875 -8.828125 L 8.65625 -0.3125 L 8.65625 -0.328125 C 8.613281 -0.191406 8.523438 -0.0859375 8.390625 -0.015625 C 8.253906 0.0546875 8.109375 0.09375 7.953125 0.09375 C 7.773438 0.09375 7.609375 0.0664062 7.453125 0.015625 C 7.304688 -0.0351562 7.210938 -0.140625 7.171875 -0.296875 L 7.1875 -0.28125 L 5.71875 -6.09375 L 5.390625 -6.09375 L 3.953125 -0.296875 C 3.910156 -0.160156 3.804688 -0.0625 3.640625 0 C 3.484375 0.0625 3.320312 0.09375 3.15625 0.09375 C 2.957031 0.09375 2.796875 0.0625 2.671875 0 C 2.546875 -0.0507812 2.460938 -0.15625 2.421875 -0.3125 L 2.4375 -0.296875 L 0.296875 -8.828125 C 0.253906 -8.992188 0.289062 -9.132812 0.40625 -9.25 C 0.519531 -9.363281 0.675781 -9.441406 0.875 -9.484375 C 1.320312 -9.546875 1.59375 -9.394531 1.6875 -9.03125 L 1.671875 -9.046875 L 2.21875 -6.890625 C 2.28125 -6.609375 2.347656 -6.316406 2.421875 -6.015625 C 2.492188 -5.722656 2.570312 -5.40625 2.65625 -5.0625 C 2.75 -4.726562 2.847656 -4.363281 2.953125 -3.96875 C 3.054688 -3.570312 3.171875 -3.128906 3.296875 -2.640625 L 4.8125 -9.0625 C 4.851562 -9.238281 4.941406 -9.351562 5.078125 -9.40625 C 5.222656 -9.457031 5.382812 -9.484375 5.5625 -9.484375 C 5.71875 -9.484375 5.867188 -9.453125 6.015625 -9.390625 C 6.171875 -9.335938 6.269531 -9.21875 6.3125 -9.03125 L 7.890625 -2.671875 Z M 9.421875 -9.046875 "/></g></g></g><g fill="#00ff43" fill-opacity="1"><g transform="translate(234.191562, 132.029044)"><g><path d="M 4.078125 -8.28125 L 1.46875 -0.28125 L 1.46875 -0.296875 C 1.425781 -0.179688 1.363281 -0.0820312 1.28125 0 C 1.195312 0.0703125 1.09375 0.109375 0.96875 0.109375 C 0.90625 0.109375 0.84375 0.101562 0.78125 0.09375 C 0.726562 0.0820312 0.671875 0.0664062 0.609375 0.046875 L 0.625 0.046875 C 0.164062 -0.0976562 0 -0.351562 0.125 -0.71875 L 2.828125 -8.953125 C 2.867188 -9.078125 2.9375 -9.179688 3.03125 -9.265625 C 3.132812 -9.359375 3.253906 -9.410156 3.390625 -9.421875 C 3.523438 -9.453125 3.65625 -9.472656 3.78125 -9.484375 C 3.90625 -9.492188 4.003906 -9.5 4.078125 -9.5 C 4.148438 -9.5 4.25 -9.492188 4.375 -9.484375 C 4.5 -9.472656 4.628906 -9.457031 4.765625 -9.4375 C 4.878906 -9.425781 4.988281 -9.367188 5.09375 -9.265625 C 5.195312 -9.160156 5.28125 -9.054688 5.34375 -8.953125 C 5.78125 -7.585938 6.226562 -6.210938 6.6875 -4.828125 C 7.144531 -3.453125 7.59375 -2.082031 8.03125 -0.71875 C 8.144531 -0.351562 7.976562 -0.0976562 7.53125 0.046875 C 7.46875 0.0664062 7.410156 0.0820312 7.359375 0.09375 C 7.304688 0.101562 7.25 0.109375 7.1875 0.109375 C 7.082031 0.109375 6.984375 0.0703125 6.890625 0 C 6.796875 -0.0820312 6.726562 -0.179688 6.6875 -0.296875 L 6.6875 -0.28125 Z M 4.96875 -2.859375 C 4.96875 -2.597656 4.878906 -2.378906 4.703125 -2.203125 C 4.523438 -2.023438 4.3125 -1.9375 4.0625 -1.9375 C 3.800781 -1.9375 3.582031 -2.023438 3.40625 -2.203125 C 3.238281 -2.378906 3.15625 -2.597656 3.15625 -2.859375 C 3.15625 -3.109375 3.238281 -3.320312 3.40625 -3.5 C 3.582031 -3.675781 3.800781 -3.765625 4.0625 -3.765625 C 4.3125 -3.765625 4.523438 -3.675781 4.703125 -3.5 C 4.878906 -3.320312 4.96875 -3.109375 4.96875 -2.859375 Z M 4.96875 -2.859375 "/></g></g></g><g fill="#00ff43" fill-opacity="1"><g transform="translate(251.862079, 132.029044)"><g><path d="M 4.3125 -3.90625 L 3.40625 -3.90625 C 3.269531 -3.90625 3.160156 -3.957031 3.078125 -4.0625 C 3.003906 -4.175781 2.96875 -4.320312 2.96875 -4.5 C 2.96875 -4.90625 3.132812 -5.109375 3.46875 -5.109375 L 4.859375 -5.109375 C 5.148438 -5.109375 5.351562 -5.191406 5.46875 -5.359375 C 5.59375 -5.523438 5.65625 -5.707031 5.65625 -5.90625 L 5.65625 -7.4375 C 5.65625 -7.632812 5.59375 -7.816406 5.46875 -7.984375 C 5.351562 -8.148438 5.148438 -8.234375 4.859375 -8.234375 L 2.359375 -8.234375 L 2.359375 -0.484375 C 2.359375 -0.109375 2.125 0.078125 1.65625 0.078125 C 1.1875 0.078125 0.953125 -0.109375 0.953125 -0.484375 L 0.953125 -8.734375 C 0.953125 -9.015625 1.023438 -9.203125 1.171875 -9.296875 C 1.316406 -9.390625 1.492188 -9.4375 1.703125 -9.4375 L 5.15625 -9.4375 C 5.363281 -9.4375 5.578125 -9.390625 5.796875 -9.296875 C 6.023438 -9.210938 6.238281 -9.109375 6.4375 -8.984375 C 6.632812 -8.828125 6.789062 -8.628906 6.90625 -8.390625 C 7.019531 -8.148438 7.078125 -7.867188 7.078125 -7.546875 L 7.078125 -5.8125 C 7.078125 -5.164062 6.863281 -4.6875 6.4375 -4.375 C 6.34375 -4.3125 6.242188 -4.25 6.140625 -4.1875 C 6.046875 -4.132812 5.945312 -4.082031 5.84375 -4.03125 L 7.75 -0.890625 C 7.769531 -0.847656 7.789062 -0.796875 7.8125 -0.734375 C 7.84375 -0.671875 7.859375 -0.617188 7.859375 -0.578125 C 7.859375 -0.390625 7.722656 -0.207031 7.453125 -0.03125 L 7.453125 -0.046875 C 7.273438 0.0664062 7.117188 0.125 6.984375 0.125 C 6.804688 0.125 6.660156 0.03125 6.546875 -0.15625 L 6.5625 -0.140625 Z M 4.3125 -3.90625 "/></g></g></g><g fill="#00ff43" fill-opacity="1"><g transform="translate(269.389904, 132.029044)"><g><path d="M 1.71875 0.015625 C 1.414062 0.015625 1.210938 -0.0546875 1.109375 -0.203125 C 1.015625 -0.359375 0.96875 -0.53125 0.96875 -0.71875 L 0.96875 -8.734375 C 0.96875 -8.910156 1.015625 -9.070312 1.109375 -9.21875 C 1.210938 -9.363281 1.414062 -9.4375 1.71875 -9.4375 L 5.84375 -9.4375 C 6.144531 -9.4375 6.300781 -9.238281 6.3125 -8.84375 C 6.332031 -8.4375 6.175781 -8.234375 5.84375 -8.234375 L 2.359375 -8.234375 L 2.359375 -1.1875 L 6.0625 -1.1875 C 6.351562 -1.1875 6.503906 -0.992188 6.515625 -0.609375 C 6.535156 -0.191406 6.382812 0.015625 6.0625 0.015625 Z M 5.40625 -4.90625 C 5.40625 -4.632812 5.304688 -4.398438 5.109375 -4.203125 C 4.921875 -4.015625 4.6875 -3.921875 4.40625 -3.921875 C 4.132812 -3.921875 3.90625 -4.015625 3.71875 -4.203125 C 3.53125 -4.398438 3.4375 -4.632812 3.4375 -4.90625 C 3.4375 -5.1875 3.53125 -5.421875 3.71875 -5.609375 C 3.90625 -5.796875 4.132812 -5.890625 4.40625 -5.890625 C 4.6875 -5.890625 4.921875 -5.796875 5.109375 -5.609375 C 5.304688 -5.421875 5.40625 -5.1875 5.40625 -4.90625 Z M 5.40625 -4.90625 "/></g></g></g><path fill="#00ff43" d="M 50.554688 140.472656 C 44.011719 139.691406 36.457031 142.261719 30.449219 138.640625 C 24.613281 135.125 25.203125 126.8125 25.472656 120.949219 C 26.078125 107.703125 29.265625 91.839844 20.132812 80.558594 C 17.96875 77.886719 15.222656 75.714844 12.148438 74.355469 C 14.128906 73.308594 15.957031 71.9375 17.542969 70.363281 C 22.207031 65.734375 24.757812 59.488281 25.765625 53.0625 C 26.898438 45.820312 26.179688 38.519531 25.644531 31.257812 C 25.367188 27.519531 25.144531 23.761719 25.308594 20.015625 C 25.433594 17.304688 25.75 14.058594 27.644531 11.945312 C 29.839844 9.484375 33.582031 8.863281 36.714844 8.792969 C 40.921875 8.695312 45.082031 9.355469 49.285156 8.855469 C 50.941406 8.65625 52.351562 4.558594 50.042969 4.835938 C 43.449219 5.621094 36.664062 3.429688 30.359375 6.324219 C 24.296875 9.101562 22.359375 15.636719 22.082031 21.804688 C 21.75 29.332031 22.945312 36.8125 23.136719 44.324219 C 23.308594 50.949219 22.722656 58.019531 19.269531 63.84375 C 15.941406 69.457031 9.519531 73.265625 2.917969 72.34375 C 1.492188 72.144531 -0.00390625 74.933594 0.691406 76.019531 C 0.726562 76.648438 1.074219 77.09375 1.890625 76.980469 C 7.851562 76.152344 13.683594 79.402344 17.355469 83.933594 C 21.605469 89.183594 23.015625 96.097656 23.242188 102.699219 C 23.5 110.074219 22.355469 117.402344 22.171875 124.761719 C 22.027344 130.726562 22.125 138.152344 27.46875 142.023438 C 33.714844 146.542969 41.980469 143.71875 49.011719 144.554688 C 50.734375 144.769531 52.539062 140.710938 50.554688 140.472656 Z M 50.554688 140.472656 " fill-opacity="1" fill-rule="nonzero"/></svg>